<?xml version="1.0" encoding="UTF-8"?>
<svg width="161px" height="44px" viewBox="0 0 161 44" version="1.1" xmlns="http://www.w3.org/2000/svg" xmlns:xlink="http://www.w3.org/1999/xlink">
    <title>logo-white</title>
    <g id="Page-1" stroke="none" stroke-width="1" fill="none" fill-rule="evenodd">
        <g id="logo-white" fill="#FFFFFF" fill-rule="nonzero">
            <g id="Group" transform="translate(47.900826, 5.333333)">
                <path d="M113.099174,8.69422565 C111.778889,8.51962591 110.589388,9.02344083 110.16071,9.90800942 L110.16071,18.9367093 L108.250865,18.9367093 L108.250865,9.01607822 C109.0065,7.5183069 111.273403,6.58956254 113.099174,6.83463323 L113.099174,8.69422565 Z M27.6979307,13.032924 C29.2403551,13.1580889 31.290325,12.9813855 32.441422,12.1010242 C32.9002001,11.7507729 33.1285511,11.2133002 33.1285511,10.4875543 C33.1285511,8.76574845 31.8933794,8.23353477 30.4215529,8.31136839 C28.6840088,8.40287549 27.9169568,9.50727144 27.7716425,10.8977585 C27.6958715,11.6224527 27.6979307,12.5343682 27.6979307,13.032924 Z M35.1152055,10.4875543 C35.1152055,11.0776173 35.0103716,11.6045719 34.8007038,12.0673665 C34.591036,12.5301609 34.2983314,12.9245881 33.9205142,13.2474924 C32.3033734,14.6316687 29.6929054,14.6832072 27.6979474,14.5654049 C27.6979474,15.2943062 27.6273661,15.4026422 27.9657409,16.058969 C28.1733328,16.4607587 28.5189733,16.7847149 28.988131,17.0476663 C29.4531368,17.3074622 30.0821402,17.438938 30.8782551,17.438938 C31.4647022,17.438938 32.0220864,17.3831923 32.5421041,17.2769599 C33.0621217,17.1665203 33.5769496,17.0182157 34.0928154,16.8267871 L34.0928154,18.4276353 C33.899755,18.5296605 33.6651762,18.6190639 33.4015344,18.7084674 C33.132703,18.7936637 32.8524539,18.8704455 32.5587114,18.9293466 C32.2660069,18.9935068 31.955657,19.0397862 31.6245479,19.0692368 C31.2975907,19.1028945 30.9706335,19.1207753 30.6436762,19.1207753 C29.4666303,19.1207753 28.5023659,18.9083105 27.7519213,18.4875882 C27.0025146,18.0626587 26.4617377,17.5020463 26.1306286,16.805751 C26.0091874,16.5427996 25.9209608,16.2493458 25.866987,15.9317004 C25.8119751,15.6130034 25.7870641,15.2595967 25.7870641,14.8777912 L25.7870641,11.5372564 C25.7870641,10.4139279 25.9977698,9.15807196 26.7440627,8.19672155 C27.5225322,7.19645439 28.6144656,6.46650124 30.4059836,6.49069277 C32.9095417,6.52435056 35.1152055,7.67607778 35.1152055,10.4875543 Z M2.0364764,10.2656234 C2.0364764,10.5885277 2.10290581,10.8556863 2.24095441,11.0597366 C2.37588914,11.2679942 2.55960795,11.4373348 2.79003495,11.5646033 C3.0163101,11.6918718 3.28098976,11.7981042 3.58199799,11.8833005 C3.88404419,11.9642895 4.19439406,12.0410713 4.51719944,12.1041796 C4.95729424,12.2062048 5.37559189,12.3166444 5.76586464,12.4354984 C6.15925128,12.5543525 6.52461297,12.7373667 6.85572201,12.9750747 C7.18994495,13.21699 7.45877649,13.5441016 7.66429246,13.9511504 C7.86877042,14.3634582 7.96945248,14.8946201 7.96945248,15.5477914 C7.96945248,16.1473206 7.85631494,16.6742753 7.62692591,17.1360179 C7.39546092,17.5946052 7.07265557,17.9816697 6.65435789,18.2919524 C6.23502233,18.6011833 5.73680177,18.8388913 5.15346857,19.0008694 C4.57117333,19.1617956 3.93075236,19.2427847 3.23531954,19.2427847 C2.8066423,19.2427847 2.42155935,19.2217486 2.07384294,19.1744173 C1.7219747,19.1281379 1.41577666,19.073444 1.14798313,19.0008694 C0.883303475,18.932502 0.657028321,18.8609792 0.468119703,18.7884046 C0.280249046,18.7116228 0.121441253,18.6443073 0,18.5759399 L0,16.9750917 C0.481613176,17.1707275 0.963226349,17.3274466 1.43653585,17.4420934 C1.91399719,17.5567402 2.4381667,17.6124859 3.00800643,17.6124859 C3.4615947,17.6124859 3.86743684,17.5693619 4.2317606,17.4894247 C4.59193252,17.4042284 4.90643423,17.2811671 5.16592408,17.1191891 C5.43060374,16.9540556 5.63196787,16.7500052 5.77416831,16.5038828 C5.91221692,16.2619675 5.98383612,15.9727209 5.98383612,15.6498165 C5.98383612,15.3184978 5.92052061,15.0429247 5.79077566,14.8304599 C5.66103073,14.6137879 5.48872947,14.4360328 5.27075799,14.2950909 C5.05382447,14.1509935 4.80160032,14.0363466 4.51719944,13.9469432 C4.22760876,13.8543843 3.93075236,13.7733952 3.61625065,13.6966134 C3.20521872,13.60721 2.78692107,13.4978222 2.36239566,13.3737091 C1.93994618,13.2506478 1.55797711,13.0770999 1.21026069,12.8520135 C0.862544288,12.626927 0.58229524,12.3250588 0.367437638,11.9390461 C0.154655955,11.5519816 0.0498220526,11.0555294 0.0498220526,10.4528447 C0.0498220526,9.83227939 0.158807793,9.29375489 0.380931111,8.83411581 C0.60305443,8.37973575 0.904062666,8.00213751 1.2818799,7.70447654 C1.65865917,7.40786735 2.09460213,7.18278091 2.59801246,7.03342449 C3.09623298,6.88511993 3.62455433,6.8093899 4.18193855,6.8093899 C4.83170115,6.8093899 5.43060374,6.86829101 5.98383612,6.99135231 C6.54122035,7.11441355 7.03944087,7.27218436 7.4919912,7.458354 L7.4919912,9.07708291 C7.01037801,8.89406871 6.52461297,8.74050513 6.03365814,8.62691008 C5.53958948,8.50700422 5.03202732,8.44810311 4.5130476,8.43968871 C4.07295281,8.43968871 3.69513557,8.48596813 3.38063386,8.57537164 C3.07132195,8.66898233 2.81079414,8.7962508 2.6146198,8.95717705 C2.41325567,9.11915516 2.2669034,9.31373919 2.17452501,9.5356702 C2.08214661,9.75654936 2.0364764,9.99846466 2.0364764,10.2656234 Z M16.7350199,12.8961893 C15.1926122,12.7710244 13.1426423,12.9477278 11.9915453,13.8280891 C11.5327672,14.1793922 11.3033782,14.7158131 11.3033782,15.4426108 C11.3033782,15.8075874 11.3625419,16.1262845 11.4756795,16.4018576 C11.5888171,16.6784825 11.7476248,16.9035689 11.948989,17.0813241 C12.1462012,17.260131 12.3849319,17.395814 12.6568773,17.4810102 C13.6585082,17.8028628 15.8911589,17.6314184 16.7350199,17.0644951 L16.7350199,12.8961893 Z M11.6137281,18.9882478 C11.1404186,18.8178552 10.7335385,18.5675255 10.3941258,18.2404139 C10.054713,17.9133024 9.79107133,17.514668 9.60216269,17.0424073 C9.41429205,16.5722501 9.31776183,16.036881 9.31776183,15.4426108 C9.31776183,14.851496 9.42155773,14.3255932 9.63226349,13.8617469 C9.84193131,13.4000042 10.1346359,13.0045253 10.5114151,12.6816209 C12.1295939,11.2984965 14.7390239,11.2459062 16.7350199,11.3637084 C16.7350199,10.6348071 16.8056011,10.527523 16.4672263,9.8701444 C16.2585965,9.46835463 15.913994,9.14439848 15.4437983,8.88144708 C14.9787925,8.62270285 14.3508271,8.49017536 13.5536743,8.49017536 C12.9682651,8.49017536 12.4098429,8.54592103 11.8908632,8.6521534 C11.3708456,8.76259301 10.8549797,8.91089763 10.3401518,9.10232623 L10.3401518,7.50147804 C10.5332123,7.39945289 10.7667532,7.31004938 11.0314328,7.22064592 C11.2992264,7.13650143 11.5805134,7.05971967 11.8732179,6.99976671 C12.1669605,6.93665837 12.4773103,6.8893271 12.8084194,6.85987655 C13.1353766,6.82621876 13.4623338,6.8093899 13.789291,6.8093899 C14.966337,6.8093899 15.9306013,7.02080286 16.681046,7.44152508 C17.4304527,7.86645458 17.9712296,8.42706702 18.3023386,9.12336239 C18.4237799,9.38631379 18.5120064,9.67976759 18.5659803,9.99846466 C18.6199542,10.31611 18.6459032,10.6695167 18.6459032,11.0513222 L18.6459032,18.0069131 C16.9093971,19.035579 13.5775473,19.6992683 11.6137281,18.9882478 Z M21.5854043,18.9367093 L21.5854043,1.84591895 L23.4973256,0.922433574 L23.4973256,18.9367093 L21.5854043,18.9367093 Z M39.4632176,10.2656234 C39.4632176,10.5885277 39.5306849,10.8556863 39.6687335,11.0597366 C39.8026303,11.2679942 39.987387,11.4373348 40.2178141,11.5646033 C40.4440892,11.6918718 40.7077309,11.7981042 41.0097771,11.8833005 C41.3118233,11.9642895 41.6221731,12.0410713 41.9449785,12.1041796 C42.3840354,12.2062048 42.803371,12.3166444 43.1936437,12.4354984 C43.5870304,12.5543525 43.9513541,12.7373667 44.2835011,12.9750747 C44.6177241,13.21699 44.8865555,13.5441016 45.0910336,13.9511504 C45.2965495,14.3634582 45.3972316,14.8946201 45.3972316,15.5477914 C45.3972316,16.1473206 45.284094,16.6742753 45.053667,17.1360179 C44.82324,17.5946052 44.5004347,17.9816697 44.081099,18.2919524 C43.6628014,18.6011833 43.1635429,18.8388913 42.5812477,19.0008694 C41.9989524,19.1617956 41.3574935,19.2427847 40.6620607,19.2427847 C40.2344214,19.2427847 39.8493385,19.2217486 39.501622,19.1744173 C39.1487158,19.1281379 38.8435558,19.073444 38.5747243,19.0008694 C38.3110826,18.932502 38.0848074,18.8609792 37.8958988,18.7884046 C37.7080281,18.7116228 37.5481824,18.6443073 37.4267412,18.5759399 L37.4267412,16.9750917 C37.9083543,17.1707275 38.3910054,17.3274466 38.8643149,17.4420934 C39.3417763,17.5567402 39.8659458,17.6124859 40.4357855,17.6124859 C40.8883358,17.6124859 41.2952159,17.5693619 41.6595397,17.4894247 C42.0197116,17.4042284 42.3342133,17.2811671 42.5937032,17.1191891 C42.8583828,16.9540556 43.0597469,16.7500052 43.2019474,16.5038828 C43.339996,16.2619675 43.4116152,15.9727209 43.4116152,15.6498165 C43.4116152,15.3184978 43.3482997,15.0429247 43.2185547,14.8304599 C43.0888098,14.6137879 42.9165085,14.4360328 42.6985371,14.2950909 C42.4805656,14.1509935 42.2293794,14.0363466 41.9449785,13.9469432 C41.6553878,13.8543843 41.3574935,13.7733952 41.0440297,13.6966134 C40.6329978,13.60721 40.2136622,13.4978222 39.7901747,13.3737091 C39.3666873,13.2506478 38.9857562,13.0770999 38.6380398,12.8520135 C38.2903234,12.626927 38.0090363,12.3250588 37.7952167,11.9390461 C37.582435,11.5519816 37.4776011,11.0555294 37.4776011,10.4528447 C37.4776011,9.83227939 37.5865869,9.29375489 37.8087102,8.83411581 C38.0308335,8.37973575 38.3318418,8.00213751 38.709659,7.70447654 C39.0864383,7.40786735 39.5223812,7.18278091 40.0257915,7.03342449 C40.5240121,6.88511993 41.0523334,6.8093899 41.6097176,6.8093899 C42.2584423,6.8093899 42.8583828,6.86829101 43.4116152,6.99135231 C43.9679614,7.11441355 44.46722,7.27218436 44.9197702,7.458354 L44.9197702,9.07708291 C44.4381571,8.89406871 43.9513541,8.74050513 43.4614372,8.62691008 C42.9673686,8.50700422 42.4598064,8.44810311 41.9397887,8.43968871 C41.5007319,8.43968871 41.1229147,8.48596813 40.8084129,8.57537164 C40.499101,8.66898233 40.2385732,8.7962508 40.0423989,8.95717705 C39.8410348,9.11915516 39.6936445,9.31373919 39.6023041,9.5356702 C39.5099257,9.75654936 39.4632176,9.99846466 39.4632176,10.2656234 Z M51.7786062,13.1749178 C51.7786062,12.3545094 51.8574911,11.6287635 52.0173368,10.9913692 C52.1761447,10.3581822 52.3899643,9.80703606 52.6494542,9.33161991 C52.9141338,8.85935913 53.2192939,8.46493204 53.5711621,8.14623491 C55.3782495,6.53171323 57.9046427,6.63689375 60.1891916,6.71052019 L60.2265578,0.922433574 L62.1322515,0 L62.1322515,18.0142757 C59.6920088,19.1554848 57.8901113,19.2427847 56.9071637,19.2427847 C56.2667427,19.2427847 55.6377393,19.1323451 55.0263812,18.9114659 C54.4098333,18.694794 53.8607528,18.342439 53.3832914,17.8586084 C52.9058301,17.3695188 52.5155574,16.7457981 52.2228528,15.9769281 C51.9249585,15.2133172 51.7786062,14.2782619 51.7786062,13.1749178 Z M53.7642226,13.1580889 C53.7642226,13.8365036 53.8399936,14.4528617 53.9904977,15.0050597 C54.1461916,15.5572576 54.3641631,16.0242594 54.648564,16.410272 C54.9381547,16.7962847 55.2900229,17.0939457 55.7093585,17.3022032 C56.1276562,17.5104607 56.6103073,17.6124859 57.1510842,17.6124859 C57.7115823,17.6124859 58.9581715,17.5073054 60.2265578,17.0644951 L60.2265578,8.8362194 C60.1144586,8.72157262 55.0793172,8.19251438 54.0953316,10.8472719 C53.8721703,11.4499565 53.7642226,12.2188265 53.7642226,13.1580889 Z M75.4866374,13.0392349 C75.4866374,13.9690311 75.3568923,14.8136311 75.093251,15.5740866 C74.8327228,16.3376974 74.4600954,16.9919206 73.9826346,17.5314969 C73.4999829,18.0752804 72.9218399,18.4949509 72.2430141,18.7968191 C71.5600372,19.0944801 70.797137,19.2427847 69.9553516,19.2427847 C69.0876175,19.2427847 68.30811,19.0944801 67.6251325,18.7968191 C66.9421556,18.4949509 66.3598604,18.0752804 65.8772093,17.5314969 C65.3997479,16.9919206 65.0354238,16.3376974 64.7800859,15.5740866 C64.5237099,14.8136311 64.3981171,13.9690311 64.3981171,13.0392349 C64.3981171,12.0999724 64.5278616,11.2511652 64.7925415,10.4907097 C65.0520311,9.72604701 65.4246585,9.07287568 65.9031579,8.52488494 C66.3847715,7.97689419 66.9670668,7.55617192 67.6500437,7.25430371 C68.3330212,6.95769452 69.1000731,6.8093899 69.942896,6.8093899 C70.8023267,6.8093899 71.5766445,6.95769452 72.2637736,7.25430371 C72.9560925,7.55617192 73.5383878,7.97689419 74.0116975,8.52488494 C74.4850065,9.07287568 74.8493306,9.72604701 75.1057066,10.4907097 C75.3610446,11.2511652 75.4866374,12.0999724 75.4866374,13.0392349 Z M73.4999829,13.0392349 C73.4999829,12.3082299 73.4127944,11.658214 73.2363417,11.0891872 C73.0598884,10.5201603 72.8128538,10.0363297 72.4993901,9.64085078 C72.1807367,9.24642363 71.8070712,8.94981444 71.3721664,8.74576415 C70.9351855,8.54171386 70.4577241,8.43968871 69.942896,8.43968871 C69.4270304,8.43968871 68.949569,8.54171386 68.5136261,8.74576415 C68.0776832,8.94981444 67.7050558,9.24642363 67.3864018,9.64085078 C67.0719007,10.0363297 66.8248661,10.5201603 66.6484128,11.0891872 C66.4729976,11.658214 66.3847715,12.3082299 66.3847715,13.0392349 C66.3847715,13.7607736 66.4729976,14.4055304 66.6484128,14.9745573 C66.8248661,15.5435842 67.0719007,16.0242594 67.3947058,16.4144793 C67.7133591,16.805751 68.0901388,17.1023602 68.5260817,17.3064105 C68.9620246,17.5104607 69.439486,17.6124859 69.9553516,17.6124859 C70.4712178,17.6124859 70.9445269,17.5104607 71.3763181,17.3064105 C71.8070712,17.1023602 72.1807367,16.805751 72.4993901,16.4144793 C72.8128538,16.0242594 73.0598884,15.5435842 73.2363417,14.9745573 C73.4127944,14.4055304 73.4999829,13.7607736 73.4999829,13.0392349 Z M82.6381781,6.8093899 C83.2038661,6.8093899 83.7446429,6.86829101 84.2605085,6.98714508 C84.7753366,7.10599909 85.2154312,7.27218436 85.584945,7.48780455 L85.584945,9.07708291 C85.0690788,8.88144708 84.5957697,8.73209067 84.1598263,8.63427275 C83.7280356,8.53750663 83.2837888,8.49017536 82.8353903,8.49017536 C82.357929,8.49017536 81.8887716,8.57116441 81.4227278,8.72788343 C80.9577214,8.88565431 80.5394239,9.14439848 80.1699106,9.50516785 C79.8014348,9.86593717 79.5035404,10.3424051 79.281417,10.9366753 C79.0551419,11.5267383 78.9420047,12.2661577 78.9420047,13.1444154 C78.9420047,13.7818097 79.026079,14.3718726 79.1931909,14.911449 C79.3613403,15.4510253 79.6125266,15.918027 79.9436355,16.3124541 C80.2747445,16.7037258 80.6899279,17.0129567 81.1881487,17.2296286 C81.6874071,17.4505078 82.2655507,17.5609475 82.9194647,17.5609475 C83.3969261,17.5609475 83.8743874,17.5104607 84.3570391,17.4084356 C84.8386521,17.3064105 85.3119618,17.1623131 85.7686636,16.9750917 L85.7686636,18.5717327 C85.6306151,18.6569289 85.4458585,18.737918 85.2237351,18.8220624 C84.99746,18.9030515 84.7504254,18.9756261 84.4784802,19.0387344 C84.2096486,19.0986873 83.9252478,19.149174 83.6190495,19.1880908 C83.3170033,19.2259558 83.0159953,19.2427847 82.7097975,19.2427847 C81.9261378,19.2427847 81.1839971,19.1239307 80.4844123,18.8820154 C79.7848276,18.6443073 79.1724314,18.2740717 78.6492999,17.7776194 C78.1251304,17.2769599 77.7099464,16.6479801 77.4089384,15.8833174 C77.1068923,15.1239137 76.9563882,14.218309 76.9563882,13.1749178 C76.9563882,12.3976334 77.0352729,11.696079 77.1951189,11.0723583 C77.3539263,10.4528447 77.571898,9.90485398 77.8521471,9.43364506 C78.1292821,8.96138428 78.4520877,8.55854272 78.8247152,8.22722396 C79.1973426,7.89590514 79.5959187,7.62453928 80.0152543,7.41207452 C80.4387422,7.19960983 80.8746851,7.04709798 81.3230836,6.95348729 C81.7756337,6.85566938 82.2105386,6.8093899 82.6381781,6.8093899 Z M93.9841125,18.9577454 C93.8211529,19.0219055 93.5699666,19.0850139 93.234706,19.1449668 C92.8994447,19.2007125 92.5008686,19.2343702 92.0317106,19.2427847 C91.4203525,19.2427847 90.8878797,19.1660029 90.4353295,19.0134911 C89.9827788,18.8609792 89.6091133,18.6390482 89.3070671,18.3550607 C89.0102107,18.066866 88.7839357,17.7218737 88.6375833,17.3148249 C88.4912309,16.9077761 88.4154599,16.4565515 88.4154599,15.9600992 C88.4154599,9.47151007 88.4154599,8.78362916 88.4154599,4.80149288 L90.3263433,3.8790593 L90.3263433,7.11441355 L92.4790716,7.11441355 L92.4790716,8.77100747 L90.3263433,8.77100747 L90.3263433,15.658231 C90.3263433,15.9306486 90.3637101,16.1851856 90.4436328,16.4186865 C90.5194039,16.6479801 90.6449973,16.8520304 90.8121086,17.022423 C90.980258,17.1917637 91.1940775,17.3232394 91.4577193,17.4168501 C91.7172089,17.514668 92.0317106,17.5609475 92.4001864,17.5609475 C92.6565624,17.5609475 92.9243559,17.5399113 93.2056431,17.4967873 C93.4858923,17.4589223 93.7453819,17.4042284 93.9841125,17.335861 L93.9841125,18.9577454 Z M106.102289,13.0392349 C106.102289,13.9690311 105.972544,14.8136311 105.707864,15.5740866 C105.448375,16.3376974 105.075747,16.9919206 104.597248,17.5314969 C104.115635,18.0752804 103.537491,18.4949509 102.858666,18.7968191 C102.175688,19.0944801 101.412788,19.2427847 100.571003,19.2427847 C99.7032692,19.2427847 98.9237617,19.0944801 98.2407842,18.7968191 C97.5578067,18.4949509 96.9755115,18.0752804 96.4928604,17.5314969 C96.0153991,16.9919206 95.6510756,16.3376974 95.3946996,15.5740866 C95.1393616,14.8136311 95.0137682,13.9690311 95.0137682,13.0392349 C95.0137682,12.0999724 95.1435133,11.2511652 95.4071552,10.4907097 C95.6676828,9.72604701 96.0403103,9.07287568 96.5177716,8.52488494 C96.9993846,7.97689419 97.5827179,7.55617192 98.2656954,7.25430371 C98.9486723,6.95769452 99.7157248,6.8093899 100.558548,6.8093899 C101.41694,6.8093899 102.192296,6.95769452 102.879425,7.25430371 C103.570706,7.55617192 104.153001,7.97689419 104.627349,8.52488494 C105.100658,9.07287568 105.464982,9.72604701 105.721358,10.4907097 C105.976696,11.2511652 106.102289,12.0999724 106.102289,13.0392349 Z M104.115635,13.0392349 C104.115635,12.3082299 104.028446,11.658214 103.851993,11.0891872 C103.67554,10.5201603 103.428506,10.0363297 103.114004,9.64085078 C102.79535,9.24642363 102.422723,8.94981444 101.986779,8.74576415 C101.550837,8.54171386 101.073375,8.43968871 100.558548,8.43968871 C100.042682,8.43968871 99.5641827,8.54171386 99.1292773,8.74576415 C98.6933344,8.94981444 98.3196689,9.24642363 98.0020536,9.64085078 C97.6875518,10.0363297 97.4405172,10.5201603 97.2640646,11.0891872 C97.0876113,11.658214 96.9993846,12.3082299 96.9993846,13.0392349 C96.9993846,13.7607736 97.0876113,14.4055304 97.2640646,14.9745573 C97.4405172,15.5435842 97.6875518,16.0242594 98.0103569,16.4144793 C98.3290109,16.805751 98.70579,17.1023602 99.1417329,17.3064105 C99.5776758,17.5104607 100.055137,17.6124859 100.571003,17.6124859 C101.085831,17.6124859 101.559141,17.5104607 101.990932,17.3064105 C102.422723,17.1023602 102.79535,16.805751 103.114004,16.4144793 C103.428506,16.0242594 103.67554,15.5435842 103.851993,14.9745573 C104.028446,14.4055304 104.115635,13.7607736 104.115635,13.0392349 L104.115635,13.0392349 Z" id="Fill-4"></path>
                <path d="M5.08467284,29.6961802 C5.08467284,29.7277666 5.07688032,29.7544172 5.06129504,29.7761328 C5.04570975,29.7978485 5.02038405,29.8166026 4.98531717,29.8323958 C4.95025028,29.848189 4.90154701,29.8600337 4.83920588,29.8679303 C4.77686475,29.8758269 4.69893951,29.8797752 4.60542781,29.8797752 C4.5080198,29.8797752 4.42814643,29.8758269 4.3658053,29.8679303 C4.30346418,29.8600337 4.25378684,29.848189 4.21677179,29.8323958 C4.17975674,29.8166026 4.15345697,29.7978485 4.13787169,29.7761328 C4.12228641,29.7544172 4.11449388,29.7277666 4.11449388,29.6961802 L4.11449388,25.0411615 L2.6650699,25.0411615 C2.60272878,25.6689407 2.52772573,26.2276164 2.44005852,26.7172051 C2.35239131,27.206794 2.25401069,27.6332036 2.14491371,27.9964469 C2.03581674,28.3596902 1.91308448,28.6656787 1.77671327,28.9144214 C1.64034205,29.1631641 1.49131003,29.3635372 1.32961273,29.5155466 C1.16791543,29.667556 0.992583633,29.7771196 0.803612086,29.8442407 C0.614640545,29.9113617 0.413008981,29.9449217 0.198711352,29.9449217 C0.163644468,29.9449217 0.133448437,29.9389994 0.108122353,29.9271545 C0.0827962704,29.9153096 0.0623408942,29.8935943 0.0467556123,29.8620079 C0.0311703303,29.8304215 0.0194815441,29.7860039 0.0116889031,29.7287535 C0.00389626206,29.6715032 0,29.5974738 0,29.5066629 C0,29.4119038 0.00292219655,29.3349132 0.00876667731,29.2756888 C0.0146111581,29.2164643 0.0243518132,29.1690854 0.037988935,29.1335508 C0.0516260568,29.0980161 0.0691592363,29.0743267 0.090588999,29.0624818 C0.112018762,29.0506369 0.138318531,29.0447145 0.169489095,29.0447145 C0.298067672,29.0447145 0.420799926,29.0141157 0.537689542,28.9529171 C0.654579155,28.8917185 0.763674496,28.7910384 0.86497883,28.6508738 C0.966283163,28.5107093 1.06174158,28.3271163 1.15135695,28.1000892 C1.24097233,27.8730622 1.32279383,27.5937243 1.39682392,27.2620674 C1.47085401,26.9304105 1.54098673,26.5424961 1.60722417,26.0983127 C1.67346163,25.6541293 1.73580182,25.1438196 1.79424662,24.5673682 C1.80203926,24.4489193 1.83028717,24.361071 1.87899117,24.3038207 C1.92769518,24.2465704 1.99685383,24.2179457 2.0864692,24.2179457 L4.78660581,24.2179457 C4.88011751,24.2179457 4.95317242,24.2465704 5.00577275,24.3038207 C5.05837308,24.361071 5.08467284,24.4489193 5.08467284,24.5673682 L5.08467284,29.6961802 Z M11.3249738,26.800119 C11.3249738,26.9541026 11.2869853,27.0636662 11.211007,27.128813 C11.1350288,27.1939599 11.0483369,27.2265329 10.9509289,27.2265329 L7.50270254,27.2265329 C7.50270254,27.5226552 7.53192449,27.7891612 7.5903693,28.026059 C7.6488141,28.2629568 7.74622062,28.4662911 7.88259189,28.6360678 C8.01896309,28.8058446 8.19624299,28.9361364 8.41443696,29.0269473 C8.63263094,29.1177581 8.89952487,29.1631628 9.21512684,29.1631628 C9.46449134,29.1631628 9.68657826,29.1424346 9.88139432,29.1009774 C10.0762103,29.0595203 10.2447237,29.0131286 10.3869393,28.9618007 C10.5291551,28.9104729 10.6460429,28.864081 10.7376064,28.8226239 C10.82917,28.7811668 10.8983287,28.7604386 10.9450845,28.7604386 C10.9723587,28.7604386 10.9967104,28.767348 11.0181401,28.781167 C11.0395699,28.7949861 11.056129,28.8157143 11.067818,28.8433524 C11.0795069,28.8709904 11.0882735,28.9094858 11.094118,28.9588395 C11.0999625,29.0081932 11.1028847,29.0684038 11.1028847,29.1394732 C11.1028847,29.190801 11.1009365,29.2352187 11.0970402,29.2727275 C11.0931439,29.3102363 11.0882735,29.3437963 11.0824291,29.3734086 C11.0765846,29.4030209 11.066844,29.4296714 11.0532068,29.4533612 C11.0395697,29.477051 11.0220365,29.4997533 11.0006068,29.521469 C10.979177,29.5431846 10.9158628,29.5787187 10.8106621,29.6280725 C10.7054615,29.6774262 10.5690923,29.7257921 10.4015505,29.7731717 C10.2340087,29.8205512 10.0401697,29.8629948 9.82002756,29.9005036 C9.59988543,29.9380124 9.36513566,29.9567665 9.11577116,29.9567665 C8.68327958,29.9567665 8.30436811,29.8955688 7.97902531,29.7731717 C7.65368257,29.6507745 7.37997012,29.4691555 7.1578799,29.2283094 C6.93578962,28.9874633 6.76825037,28.6854231 6.65525708,28.3221798 C6.54226378,27.9589365 6.48576796,27.5364751 6.48576796,27.0547829 C6.48576796,26.5967804 6.54421188,26.1851766 6.66110148,25.8199592 C6.77799114,25.4547417 6.94650444,25.144805 7.16664657,24.8901399 C7.38678869,24.6354747 7.65270858,24.440037 7.96441418,24.3038207 C8.27611985,24.1676045 8.62483531,24.0994974 9.01057101,24.0994974 C9.42358099,24.0994974 9.77521865,24.1666175 10.0654945,24.3008595 C10.3557704,24.4351016 10.5944164,24.6157335 10.7814398,24.8427605 C10.9684632,25.0697876 11.1058065,25.3362937 11.1934737,25.6422867 C11.2811409,25.9482797 11.3249738,26.2749964 11.3249738,26.6224465 L11.3249738,26.800119 Z M10.3547949,26.5099206 C10.3664838,25.996642 10.2544663,25.5939218 10.0187389,25.3017478 C9.78301151,25.0095738 9.43332199,24.863489 8.96965983,24.863489 C8.73198432,24.863489 8.5235343,24.9088937 8.34430353,24.9997046 C8.16507282,25.0905154 8.01506672,25.2109367 7.89428075,25.360972 C7.77349484,25.5110072 7.67998456,25.6857167 7.61374709,25.8851057 C7.54750967,26.0844947 7.51049515,26.2927642 7.50270254,26.5099206 L10.3547949,26.5099206 Z M16.5775625,29.6961802 C16.5775625,29.7277666 16.56977,29.7544172 16.5541847,29.7761328 C16.5385994,29.7978485 16.5132737,29.8166026 16.4782068,29.8323958 C16.4431399,29.848189 16.3944367,29.8600337 16.3320956,29.8679303 C16.2697544,29.8758269 16.1918292,29.8797752 16.0983175,29.8797752 C16.0048058,29.8797752 15.9259065,29.8758269 15.8616172,29.8679303 C15.7973279,29.8600337 15.7466765,29.848189 15.7096615,29.8323958 C15.6726464,29.8166026 15.6473207,29.7978485 15.6336836,29.7761328 C15.6200464,29.7544172 15.613228,29.7277666 15.613228,29.6961802 L15.613228,27.5522657 C15.3950341,27.6509732 15.1641805,27.7289508 14.9206605,27.7862012 C14.6771405,27.8434515 14.4131687,27.8720762 14.1287373,27.8720762 C13.7663795,27.8720762 13.4644192,27.8246974 13.2228473,27.7299382 C12.9812755,27.6351791 12.7884105,27.5048873 12.6442466,27.3390588 C12.5000827,27.1732303 12.3978059,26.9758184 12.3374129,26.7468172 C12.2770199,26.517816 12.2468239,26.2295947 12.2468239,25.8821445 L12.2468239,24.3660061 C12.2468239,24.3344197 12.2536424,24.3077691 12.2672795,24.2860535 C12.2809166,24.2643378 12.3072164,24.2445966 12.3461796,24.2268293 C12.3851428,24.209062 12.4348201,24.1972173 12.4952131,24.1912949 C12.5556061,24.1853724 12.6325573,24.1824112 12.726069,24.1824112 C12.823477,24.1824112 12.9033503,24.1853724 12.9656915,24.1912949 C13.0280326,24.1972173 13.0767358,24.209062 13.1118027,24.2268293 C13.1468696,24.2445966 13.1731694,24.2643378 13.1907028,24.2860535 C13.2082363,24.3077691 13.2170029,24.3344197 13.2170029,24.3660061 L13.2170029,25.7281617 C13.2170029,26.0479738 13.2403804,26.2868421 13.2871363,26.444774 C13.3338921,26.6027059 13.4020767,26.7280625 13.4916921,26.8208474 C13.5813075,26.9136324 13.6913768,26.9787783 13.8219036,27.0162871 C13.9524303,27.0537959 14.1053586,27.0725501 14.280693,27.0725501 C14.510576,27.0725501 14.7355851,27.0429383 14.9557272,26.9837138 C15.1758693,26.9244894 15.3950341,26.8396023 15.613228,26.72905 L15.613228,24.3660061 C15.613228,24.3344197 15.6200464,24.3077691 15.6336836,24.2860535 C15.6473207,24.2643378 15.6726464,24.2445966 15.7096615,24.2268293 C15.7466765,24.209062 15.7973279,24.1972173 15.8616172,24.1912949 C15.9259065,24.1853724 16.0048058,24.1824112 16.0983175,24.1824112 C16.1918292,24.1824112 16.2697544,24.1853724 16.3320956,24.1912949 C16.3944367,24.1972173 16.4431399,24.209062 16.4782068,24.2268293 C16.5132737,24.2445966 16.5385994,24.2643378 16.5541847,24.2860535 C16.56977,24.3077691 16.5775625,24.3344197 16.5775625,24.3660061 L16.5775625,29.6961802 Z M23.0107304,29.7021027 C23.0107304,29.7297408 23.0029379,29.7554043 22.9873526,29.7790941 C22.9717673,29.8027839 22.9464416,29.821538 22.9113747,29.835357 C22.8763079,29.849176 22.8276045,29.8600337 22.7652634,29.8679303 C22.7029223,29.8758269 22.6249971,29.8797752 22.5314854,29.8797752 C22.4379737,29.8797752 22.3600484,29.8758269 22.2977073,29.8679303 C22.2353662,29.8600337 22.1847148,29.849176 22.1457516,29.835357 C22.1067884,29.821538 22.0795145,29.8027839 22.0639292,29.7790941 C22.0483439,29.7554043 22.0405514,29.7297408 22.0405514,29.7021027 L22.0405514,26.6342913 C22.0405514,26.4803078 22.0444477,26.3233653 22.0522404,26.1634593 C22.060033,26.0035533 22.0697736,25.8466108 22.0814626,25.6926272 C21.9918472,25.8505591 21.8934666,26.0055274 21.7863178,26.1575368 C21.679169,26.3095463 21.5710477,26.4605664 21.4619507,26.6106017 L19.2293703,29.7021027 C19.202096,29.7336891 19.1777444,29.7613267 19.1563146,29.7850165 C19.1348849,29.8087063 19.107611,29.8274604 19.0744923,29.8412794 C19.0413735,29.8550985 18.9994887,29.8649691 18.9488366,29.8708915 C18.8981844,29.876814 18.8358442,29.8797752 18.7618141,29.8797752 C18.6760951,29.8797752 18.6059623,29.8758269 18.5514139,29.8679303 C18.4968654,29.8600337 18.4530325,29.849176 18.4199137,29.835357 C18.386795,29.821538 18.3634174,29.8027839 18.3497803,29.7790941 C18.3361431,29.7554043 18.3293247,29.7297408 18.3293247,29.7021027 L18.3293247,24.3600837 C18.3293247,24.3324456 18.3361431,24.306782 18.3497803,24.2830923 C18.3634174,24.2594025 18.3887431,24.2396613 18.4257582,24.2238681 C18.4627732,24.2080749 18.5124505,24.1972173 18.5747917,24.1912949 C18.6371328,24.1853724 18.7131099,24.1824112 18.8027253,24.1824112 C18.9897487,24.1824112 19.1183253,24.1972171 19.1884591,24.2268293 C19.2585929,24.2564416 19.2936592,24.3008592 19.2936592,24.3600837 L19.2936592,27.4456623 C19.2936592,27.5996459 19.289763,27.7526401 19.2819703,27.9046495 C19.2741777,28.0566589 19.264437,28.207679 19.252748,28.3577143 C19.3423634,28.207679 19.4329515,28.0606072 19.5245151,27.9164943 C19.6160786,27.7723815 19.7144592,27.631232 19.8196598,27.4930416 L22.0814626,24.3600837 C22.1048405,24.3284973 22.1291922,24.3008597 22.1545183,24.2771698 C22.1798443,24.2534801 22.2110144,24.2347259 22.2480295,24.2209069 C22.2850445,24.2070879 22.3288775,24.1972173 22.3795296,24.1912949 C22.4301818,24.1853724 22.4964183,24.1824112 22.578241,24.1824112 C22.6600637,24.1824112 22.7292224,24.1853724 22.785719,24.1912949 C22.8422157,24.1972173 22.8870227,24.2080749 22.9201414,24.2238681 C22.9532602,24.2396613 22.9766377,24.2594025 22.9902748,24.2830923 C23.0039119,24.306782 23.0107304,24.3344197 23.0107304,24.3660061 L23.0107304,29.7021027 Z M31.4017895,29.6428785 C31.4056859,29.7297411 31.3784121,29.7909387 31.3199673,29.8264734 C31.2615225,29.8620081 31.1426864,29.8797752 30.9634557,29.8797752 C30.8660477,29.8797752 30.7861743,29.877801 30.7238332,29.8738527 C30.661492,29.8699044 30.6127888,29.8620079 30.5777219,29.8501631 C30.542655,29.8383182 30.5183034,29.8215382 30.5046662,29.7998225 C30.4910291,29.7781069 30.4822625,29.7494822 30.4783662,29.7139475 L30.0984768,26.6046793 C30.0867879,26.4941269 30.0750991,26.3756798 30.0634101,26.2493343 C30.0517212,26.1229888 30.0400324,25.9946711 30.0283434,25.8643773 C30.0166545,25.7340835 30.0059398,25.6037916 29.996199,25.4734978 C29.9864581,25.343204 29.9757434,25.2208086 29.9640545,25.106308 L29.95821,24.9700925 C29.9231431,25.0845931 29.8861286,25.2050144 29.8471654,25.3313598 C29.8082022,25.4577054 29.7663174,25.5860231 29.7215098,25.7163169 C29.676702,25.8466107 29.6338432,25.9769025 29.5929318,26.1071963 C29.5520205,26.2374901 29.5140319,26.3598855 29.478965,26.4743861 L28.3743637,29.6310337 C28.3587784,29.6784132 28.3402711,29.7178956 28.3188414,29.749482 C28.2974116,29.7810683 28.2681897,29.8067319 28.2311746,29.8264734 C28.1941596,29.8462149 28.1474044,29.8600337 28.0909077,29.8679303 C28.0344111,29.8758269 27.9652525,29.8797752 27.8834297,29.8797752 C27.801607,29.8797752 27.7334224,29.8758269 27.6788739,29.8679303 C27.6243254,29.8600337 27.5785444,29.847202 27.5415293,29.8294346 C27.5045143,29.8116673 27.4743182,29.7869908 27.4509403,29.7554044 C27.4275624,29.723818 27.4080811,29.6843357 27.3924958,29.6369561 L26.3288056,26.4743861 C26.2898424,26.3638338 26.2499057,26.2453867 26.2089944,26.1190412 C26.168083,25.9926956 26.1271723,25.8633908 26.0862609,25.7311229 C26.0453495,25.598855 26.0054128,25.4675761 25.9664496,25.3372823 C25.9274864,25.2069884 25.8943682,25.0845931 25.8670939,24.9700925 L25.8612495,25.106308 C25.8495605,25.2208086 25.8378718,25.343204 25.8261828,25.4734978 C25.8144938,25.6037916 25.801831,25.7340835 25.7881939,25.8643773 C25.7745567,25.9946711 25.7609198,26.1229888 25.7472827,26.2493343 C25.7336455,26.3756798 25.7229308,26.4941269 25.7151382,26.6046793 L25.3527822,29.6606458 C25.3488859,29.7080253 25.3401193,29.7465206 25.3264822,29.7761328 C25.3128451,29.8057451 25.2865453,29.8274604 25.247582,29.8412794 C25.2086188,29.8550985 25.1579675,29.8649691 25.0956263,29.8708915 C25.0332852,29.876814 24.9514637,29.8797752 24.8501594,29.8797752 C24.7527514,29.8797752 24.6758002,29.8758269 24.6193035,29.8679303 C24.5628069,29.8600337 24.519948,29.8462149 24.4907256,29.8264734 C24.4615032,29.8067319 24.442996,29.7820554 24.4352033,29.7524432 C24.4274107,29.722831 24.4274107,29.6863098 24.4352033,29.6428785 L25.013804,24.5969803 C25.0332856,24.4706348 25.0771186,24.37489 25.1453042,24.3097432 C25.2134898,24.2445962 25.3157667,24.2120233 25.4521379,24.2120233 L25.9138495,24.2120233 C26.0268428,24.2120233 26.1232754,24.2209068 26.2031499,24.2386742 C26.2830245,24.2564415 26.351209,24.2870403 26.4077057,24.3304716 C26.4642023,24.3739029 26.5119316,24.4321394 26.5508948,24.5051829 C26.589858,24.5782264 26.6268725,24.6700229 26.6619394,24.7805752 L27.4392514,27.0488604 C27.482111,27.1870508 27.526918,27.3262262 27.5736738,27.4663907 C27.6204297,27.6065553 27.6642626,27.7447436 27.7051739,27.8809598 C27.7460853,28.0171761 27.785048,28.1504291 27.822063,28.2807229 C27.859078,28.4110167 27.8931703,28.5353862 27.9243409,28.6538351 L27.9360298,28.6538351 C27.9710966,28.5314379 28.0071371,28.4021331 28.0441522,28.2659168 C28.0811672,28.1297006 28.1211039,27.9915123 28.1639634,27.8513477 C28.2068229,27.7111832 28.2506559,27.5720078 28.2954636,27.4338174 C28.3402712,27.2956271 28.3841042,27.1633611 28.4269637,27.0370156 L29.2042758,24.7805752 C29.2354463,24.6818677 29.2695386,24.5959936 29.3065537,24.5229501 C29.3435687,24.4499066 29.3893498,24.390683 29.4438983,24.3452777 C29.4984468,24.2998722 29.5637092,24.2663122 29.6396874,24.2445966 C29.7156656,24.222881 29.8082019,24.2120233 29.9172989,24.2120233 L30.3731661,24.2120233 C30.5134336,24.2120233 30.6196068,24.241635 30.6916887,24.3008595 C30.7637706,24.360084 30.8056554,24.4548417 30.8173444,24.5851355 L31.4017895,29.6428785 Z M39.9744755,29.6961802 C39.9744755,29.7277666 39.9666829,29.7544172 39.9510976,29.7761328 C39.9355124,29.7978485 39.9101867,29.8166026 39.8751198,29.8323958 C39.8400529,29.848189 39.7913496,29.8600337 39.7290085,29.8679303 C39.6666674,29.8758269 39.5887421,29.8797752 39.4952304,29.8797752 C39.3978224,29.8797752 39.3179491,29.8758269 39.2556079,29.8679303 C39.1932668,29.8600337 39.1435894,29.848189 39.1065744,29.8323958 C39.0695594,29.8166026 39.0432596,29.7978485 39.0276743,29.7761328 C39.012089,29.7544172 39.0042965,29.7277666 39.0042965,29.6961802 L39.0042965,25.0411615 L36.4970268,25.0411615 L36.4970268,29.6961802 C36.4970268,29.7277666 36.4892343,29.7544172 36.473649,29.7761328 C36.4580637,29.7978485 36.4317639,29.8166026 36.3947489,29.8323958 C36.3577338,29.848189 36.3080565,29.8600337 36.2457153,29.8679303 C36.1833742,29.8758269 36.105449,29.8797752 36.0119373,29.8797752 C35.9184256,29.8797752 35.8405003,29.8758269 35.7781592,29.8679303 C35.7158181,29.8600337 35.6661408,29.848189 35.6291257,29.8323958 C35.5921107,29.8166026 35.5667849,29.7978485 35.5531479,29.7761328 C35.5395107,29.7544172 35.5326923,29.7277666 35.5326923,29.6961802 L35.5326923,24.5614458 C35.5326923,24.4429969 35.558992,24.3551486 35.6115924,24.2978983 C35.6641927,24.240648 35.7372476,24.2120233 35.8307593,24.2120233 L39.6822529,24.2120233 C39.7757646,24.2120233 39.8478454,24.240648 39.8984976,24.2978983 C39.9491498,24.3551486 39.9744755,24.4429969 39.9744755,24.5614458 L39.9744755,29.6961802 Z M46.5618527,26.9481793 C46.5618527,27.4140784 46.5121754,27.8325916 46.4128192,28.2037315 C46.313463,28.5748714 46.1673532,28.8897433 45.9744853,29.1483568 C45.7816174,29.4069703 45.5429714,29.6063562 45.25854,29.7465208 C44.9741086,29.8866853 44.6487707,29.9567665 44.2825166,29.9567665 C44.1266638,29.9567665 43.9825021,29.9409736 43.8500272,29.9093872 C43.7175523,29.8778008 43.5880016,29.8284479 43.4613712,29.7613268 C43.3347407,29.6942058 43.2090863,29.6093187 43.084404,29.5066629 C42.9597218,29.4040072 42.8272488,29.283586 42.6869813,29.1453956 L42.6869813,31.8104826 C42.6869813,31.842069 42.6791888,31.8697067 42.6636035,31.8933965 C42.6480183,31.9170863 42.6226925,31.9368274 42.5876257,31.9526206 C42.5525588,31.9684138 42.5038555,31.9802586 42.4415144,31.9881551 C42.3791732,31.9960517 42.2992998,32 42.2018918,32 C42.1083801,32 42.0304549,31.9960517 41.9681138,31.9881551 C41.9057726,31.9802586 41.8560953,31.9684138 41.8190803,31.9526206 C41.7820652,31.9368274 41.7567395,31.9170863 41.7431024,31.8933965 C41.7294653,31.8697067 41.7226468,31.842069 41.7226468,31.8104826 L41.7226468,24.3660061 C41.7226468,24.3304714 41.7284912,24.3018467 41.7401802,24.2801311 C41.7518691,24.2584155 41.7752467,24.2396613 41.8103136,24.2238681 C41.8453805,24.2080749 41.8901875,24.1972173 41.944736,24.1912949 C41.9992845,24.1853724 42.0655209,24.1824112 42.1434473,24.1824112 C42.22527,24.1824112 42.2924806,24.1853724 42.3450809,24.1912949 C42.3976812,24.1972173 42.4415142,24.2080749 42.476581,24.2238681 C42.5116479,24.2396613 42.5359996,24.2584155 42.5496367,24.2801311 C42.5632738,24.3018467 42.5700923,24.3304714 42.5700923,24.3660061 L42.5700923,25.0826184 C42.7298414,24.91679 42.8837438,24.7726792 43.031804,24.6502821 C43.1798642,24.5278848 43.3288962,24.4262177 43.4789045,24.3452777 C43.6289128,24.2643375 43.7828152,24.2031399 43.9406162,24.1616827 C44.0984172,24.1202256 44.2649824,24.0994974 44.4403168,24.0994974 C44.8221562,24.0994974 45.1474941,24.1745139 45.4163402,24.3245492 C45.6851863,24.4745845 45.904351,24.6798928 46.073841,24.9404804 C46.2433309,25.201068 46.3670373,25.5040953 46.4449637,25.8495712 C46.5228901,26.1950472 46.5618527,26.5612463 46.5618527,26.9481793 Z M45.5449181,27.0607053 C45.5449181,26.7882728 45.5244627,26.5247279 45.4835514,26.2700628 C45.44264,26.0153976 45.3725073,25.789361 45.2731512,25.5919461 C45.1737949,25.3945313 45.040348,25.2366018 44.8728062,25.1181529 C44.7052644,24.999704 44.4968144,24.9404804 44.2474499,24.9404804 C44.1227676,24.9404804 44.0000354,24.9592345 43.8792494,24.9967433 C43.7584635,25.0342522 43.6357312,25.0934758 43.511049,25.1744158 C43.3863667,25.2553559 43.2558419,25.3619583 43.1194707,25.4942263 C42.9830995,25.6264942 42.8389378,25.789359 42.6869813,25.9828256 L42.6869813,28.1030504 C42.9519311,28.430759 43.20324,28.6814721 43.4409156,28.8551972 C43.6785911,29.0289223 43.9279519,29.1157835 44.1890054,29.1157835 C44.4305772,29.1157835 44.6380532,29.0565599 44.8114395,28.938111 C44.9848257,28.8196621 45.1250911,28.6617326 45.23224,28.4643178 C45.3393888,28.2669029 45.4182881,28.0458016 45.4689403,27.8010072 C45.5195925,27.5562128 45.5449181,27.309448 45.5449181,27.0607053 Z M52.8664427,26.971869 C52.8664427,27.4061817 52.8099468,27.8059407 52.6969535,28.1711582 C52.5839602,28.5363757 52.4154469,28.8512476 52.1914085,29.1157835 C51.9673701,29.3803194 51.6868392,29.5866148 51.3498075,29.734676 C51.0127757,29.8827371 50.6221755,29.9567665 50.177995,29.9567665 C49.7455034,29.9567665 49.36854,29.8916206 49.0470936,29.7613268 C48.7256471,29.6310331 48.4577791,29.4415176 48.2434815,29.1927749 C48.0291839,28.9440322 47.8694371,28.641992 47.7642364,28.2866453 C47.6590358,27.9312986 47.6064363,27.5285784 47.6064363,27.0784725 C47.6064363,26.6441598 47.661958,26.2444008 47.7730031,25.8791833 C47.8840483,25.5139659 48.0515876,25.1990939 48.2756259,24.934558 C48.4996644,24.6700221 48.7792212,24.4647138 49.1143047,24.3186268 C49.4493883,24.1725398 49.8409627,24.0994974 50.2890395,24.0994974 C50.7215311,24.0994974 51.0984945,24.1646433 51.4199409,24.2949371 C51.7413873,24.4252309 52.0092554,24.6147463 52.223553,24.863489 C52.4378506,25.1122317 52.5985714,25.4142719 52.7057203,25.7696186 C52.812869,26.1249653 52.8664427,26.5257115 52.8664427,26.971869 Z M51.8495081,27.0370156 C51.8495081,26.7487899 51.8232083,26.4763615 51.770608,26.2197222 C51.7180076,25.9630829 51.6313158,25.7380334 51.5105299,25.5445668 C51.3897439,25.3511003 51.2261009,25.1981061 51.0195959,25.0855796 C50.813091,24.9730532 50.5559377,24.9167907 50.2481284,24.9167907 C49.963697,24.9167907 49.7192065,24.9681178 49.5146497,25.0707736 C49.3100928,25.1734293 49.1415795,25.318527 49.0091046,25.5060711 C48.8766298,25.6936152 48.7782491,25.9157036 48.7139599,26.1723429 C48.6496705,26.4289822 48.6175264,26.7093071 48.6175264,27.0133259 C48.6175264,27.3054999 48.6438261,27.5799024 48.6964265,27.8365417 C48.7490268,28.093181 48.8366927,28.3172435 48.9594268,28.5087359 C49.0821609,28.7002283 49.246778,28.8522355 49.453283,28.9647619 C49.659788,29.0772884 49.9169412,29.1335508 50.2247505,29.1335508 C50.5052856,29.1335508 50.748802,29.0822237 50.955307,28.979568 C51.161812,28.8769122 51.3312994,28.7328016 51.4637743,28.5472316 C51.5962492,28.3616616 51.6936557,28.1405603 51.7559969,27.883921 C51.818338,27.6272817 51.8495081,27.3449827 51.8495081,27.0370156 Z M53.6497465,31.6328102 C53.6497465,31.6604482 53.6439021,31.6831506 53.6322131,31.700918 C53.6205242,31.7186853 53.5981207,31.7334912 53.565002,31.7453361 C53.5318832,31.757181 53.4899984,31.7670516 53.4393462,31.7749482 C53.3886941,31.7828448 53.3263539,31.786793 53.2523238,31.786793 C53.1705011,31.786793 53.1032905,31.7828448 53.0506902,31.7749482 C52.9980899,31.7670516 52.955231,31.757181 52.9221123,31.7453361 C52.8889935,31.7334912 52.865616,31.7186853 52.8519788,31.700918 C52.8383418,31.6831506 52.8315233,31.6604482 52.8315233,31.6328102 L52.8315233,29.2579215 C52.8315233,29.1592141 52.8471083,29.0940682 52.8782789,29.0624818 C52.9094495,29.0308954 52.9698415,29.0151025 53.0594569,29.0151025 L53.4335018,29.0151025 C53.5776656,28.8374291 53.7120867,28.6340949 53.836769,28.4050936 C53.9614512,28.1760924 54.077365,27.8888581 54.1845138,27.5433821 C54.2916626,27.1979062 54.3900433,26.7823541 54.4796586,26.2967136 C54.569274,25.8110731 54.6510955,25.2306822 54.7251256,24.5555234 C54.7329182,24.5002473 54.743633,24.4499072 54.7572701,24.4045018 C54.7709072,24.3590964 54.7903885,24.3235623 54.8157146,24.2978983 C54.8410407,24.2722344 54.8712367,24.2515061 54.9063036,24.235713 C54.9413705,24.2199198 54.9822812,24.2120233 55.0290371,24.2120233 L57.9512628,24.2120233 C58.0447745,24.2120233 58.1178295,24.240648 58.1704297,24.2978983 C58.2230301,24.3551486 58.2493298,24.4429969 58.2493298,24.5614458 L58.2493298,29.0151025 L58.9798865,29.0151025 C59.0617091,29.0151025 59.1201531,29.0308954 59.1552198,29.0624818 C59.1902865,29.0940682 59.2078198,29.1592141 59.2078198,29.2579215 L59.2078198,31.6328102 C59.2078198,31.6604482 59.2019757,31.6831506 59.1902865,31.700918 C59.1785978,31.7186853 59.1561942,31.7334912 59.1230752,31.7453361 C59.0899567,31.757181 59.0461234,31.7670516 58.9915752,31.7749482 C58.9370267,31.7828448 58.8727384,31.786793 58.7987083,31.786793 C58.7207819,31.786793 58.6564936,31.7828448 58.6058414,31.7749482 C58.5551893,31.7670516 58.5133044,31.757181 58.4801857,31.7453361 C58.447067,31.7334912 58.4236894,31.7186853 58.4100523,31.700918 C58.3964152,31.6831506 58.3895967,31.6604482 58.3895967,31.6328102 L58.3895967,29.8442407 L53.6497465,29.8442407 L53.6497465,31.6328102 Z M57.2791509,25.0174718 L55.6134822,25.0174718 C55.5316595,25.6610442 55.4469158,26.2039269 55.3592486,26.6461361 C55.2715814,27.0883454 55.1780711,27.4614539 55.0787149,27.7654727 C54.9793587,28.0694916 54.8751337,28.3172435 54.7660367,28.5087359 C54.6569398,28.7002283 54.5439481,28.8690155 54.4270585,29.0151025 L57.2791509,29.0151025 L57.2791509,25.0174718 Z M64.1974081,29.7021027 C64.1974081,29.7494822 64.181823,29.7850164 64.1506527,29.8087062 C64.1194819,29.8323959 64.076623,29.850163 64.0220748,29.8620079 C63.967526,29.8738528 63.8876528,29.8797752 63.7824523,29.8797752 C63.6811481,29.8797752 63.6003005,29.8738528 63.5399077,29.8620079 C63.4795143,29.850163 63.4356815,29.8323959 63.4084071,29.8087062 C63.3811333,29.7850164 63.3674964,29.7494822 63.3674964,29.7021027 L63.3674964,29.1690853 C63.1376132,29.417828 62.8814341,29.6112916 62.5989508,29.749482 C62.3164676,29.8876724 62.0174295,29.9567665 61.7018273,29.9567665 C61.4251887,29.9567665 61.1748536,29.9202453 60.9508156,29.8472018 C60.726777,29.7741583 60.5358604,29.668543 60.3780592,29.5303526 C60.2202581,29.3921622 60.097526,29.222388 60.0098587,29.0210248 C59.9221915,28.8196617 59.8783588,28.5906639 59.8783588,28.3340246 C59.8783588,28.0339541 59.9387504,27.7733704 60.0595367,27.5522657 C60.1803224,27.3311612 60.3537063,27.1475681 60.5796925,27.0014811 C60.8056793,26.8553941 61.0823138,26.7458305 61.4096047,26.672787 C61.7368957,26.5997435 62.1050927,26.5632223 62.5142062,26.5632223 L63.2389185,26.5632223 L63.2389185,26.1486532 C63.2389185,25.9433418 63.2174887,25.7617228 63.1746292,25.603791 C63.1317697,25.4458591 63.0626108,25.3145802 62.9671513,25.2099503 C62.8716912,25.1053205 62.7479853,25.0263557 62.5960288,24.9730537 C62.4440723,24.9197517 62.2570515,24.8931011 62.0349611,24.8931011 C61.7972856,24.8931011 61.5839654,24.9217258 61.394994,24.9789761 C61.2060221,25.0362264 61.040431,25.0993982 60.8982156,25.1684934 C60.7559996,25.2375886 60.6371639,25.3007604 60.5417038,25.3580107 C60.4462437,25.415261 60.3751372,25.4438858 60.3283813,25.4438858 C60.297211,25.4438858 60.2699372,25.4359893 60.2465593,25.4201961 C60.2231813,25.4044029 60.2027259,25.3807135 60.185192,25.3491271 C60.1676587,25.3175407 60.1549962,25.2770713 60.1472033,25.2277176 C60.1394105,25.1783639 60.1355147,25.1240756 60.1355147,25.0648512 C60.1355147,24.9661438 60.1423331,24.8881661 60.15597,24.8309158 C60.1696069,24.7736654 60.2027254,24.7193772 60.2553259,24.6680493 C60.3079259,24.6167214 60.398514,24.5565108 60.5270925,24.4874156 C60.655671,24.4183204 60.8037293,24.3551486 60.971271,24.2978983 C61.1388126,24.240648 61.3219369,24.1932692 61.5206494,24.1557604 C61.7193618,24.1182515 61.9200195,24.0994974 62.1226278,24.0994974 C62.5005711,24.0994974 62.8220127,24.142928 63.0869626,24.2297905 C63.3519125,24.316653 63.5662065,24.4439838 63.7298523,24.6117863 C63.8934974,24.7795889 64.0123337,24.9878585 64.0863635,25.2366012 C64.1603938,25.4853439 64.1974081,25.7755394 64.1974081,26.1071963 L64.1974081,29.7021027 Z M63.2389185,27.2679898 L62.4148503,27.2679898 C62.149901,27.2679898 61.9200213,27.2906922 61.7252052,27.3360976 C61.5303892,27.381503 61.3686946,27.4486231 61.2401155,27.5374597 C61.111537,27.6262964 61.0170531,27.7328988 60.9566596,27.8572702 C60.8962668,27.9816415 60.866071,28.1247651 60.866071,28.2866453 C60.866071,28.5630261 60.9527626,28.7831404 61.1261489,28.9469946 C61.2995351,29.110849 61.5420773,29.1927749 61.8537832,29.1927749 C62.1070438,29.1927749 62.3417938,29.127629 62.5580395,28.9973352 C62.7742853,28.8670414 63.0012424,28.6676554 63.2389185,28.3991712 L63.2389185,27.2679898 Z M72.8865345,29.7376372 C72.8865345,29.7613269 72.8787417,29.7820552 72.8631566,29.7998225 C72.8475715,29.8175899 72.8212715,29.8323957 72.7842566,29.8442407 C72.7472417,29.8560855 72.6985382,29.8649691 72.6381453,29.8708915 C72.5777525,29.876814 72.5008013,29.8797752 72.4072895,29.8797752 C72.2981925,29.8797752 72.2095526,29.8758269 72.1413669,29.8679303 C72.0731812,29.8600337 72.0186336,29.849176 71.9777223,29.835357 C71.936811,29.821538 71.9066146,29.8037709 71.8871331,29.7820553 C71.8676515,29.7603396 71.8520664,29.7356631 71.8403777,29.7080251 L71.27931,28.3340246 C71.2052803,28.1563513 71.1283291,28.003357 71.0484547,27.8750374 C70.9685798,27.7467178 70.8799399,27.6430765 70.7825322,27.5641106 C70.6851239,27.4851447 70.5731061,27.4269082 70.4464758,27.3893993 C70.3198454,27.3518905 70.1708133,27.3331364 69.9993753,27.3331364 L69.6077974,27.3331364 L69.6077974,29.7435596 C69.6077974,29.7633011 69.5980564,29.7820552 69.5785748,29.7998225 C69.5590933,29.8175899 69.5298713,29.8323957 69.4909082,29.8442407 C69.4519451,29.8560855 69.4022677,29.8649691 69.3418749,29.8708915 C69.2814815,29.876814 69.2103749,29.8797752 69.1285523,29.8797752 C69.0467292,29.8797752 68.9746488,29.876814 68.9123072,29.8708915 C68.8499661,29.8649691 68.7993149,29.8560855 68.7603519,29.8442407 C68.7213882,29.8323957 68.6921668,29.8175899 68.6726846,29.7998225 C68.6532031,29.7820552 68.6434626,29.7633011 68.6434626,29.7435596 L68.6434626,27.3331364 L68.2518842,27.3331364 C68.0804461,27.3331364 67.9304402,27.3518905 67.8018617,27.3893993 C67.6732831,27.4269082 67.5583433,27.4851447 67.4570391,27.5641106 C67.3557344,27.6430765 67.2651463,27.7467178 67.185272,27.8750374 C67.1053976,28.003357 67.0284464,28.1563513 66.9544161,28.3340246 L66.393349,29.7080251 C66.3855561,29.7356631 66.3709454,29.7603396 66.3495157,29.7820553 C66.3280859,29.8037709 66.2988639,29.821538 66.2618484,29.835357 C66.2248336,29.849176 66.1722342,29.8600337 66.1040485,29.8679303 C66.0358628,29.8758269 65.9491711,29.8797752 65.8439706,29.8797752 C65.7543551,29.8797752 65.6783778,29.876814 65.6160367,29.8708915 C65.5536957,29.8649691 65.5040183,29.8560855 65.4670034,29.8442407 C65.429988,29.8323957 65.4036886,29.8175899 65.3881029,29.7998225 C65.3725178,29.7820552 65.3647255,29.7613269 65.3647255,29.7376372 C65.3647255,29.7139474 65.3695957,29.6833485 65.3793362,29.6458397 C65.3890773,29.6083309 65.4075844,29.559965 65.4348588,29.5007405 L66.0134592,28.1563521 C66.0874896,27.9786788 66.1673628,27.8227234 66.2530818,27.6884813 C66.3388008,27.5542392 66.4293889,27.4377662 66.524849,27.3390588 C66.620309,27.2403514 66.7235596,27.1564513 66.8346048,27.0873561 C66.94565,27.018261 67.0674083,26.9619985 67.1998833,26.9185673 L67.1998833,26.9067224 C67.1063714,26.8751361 67.0138351,26.8346666 66.9222715,26.7853129 C66.8307084,26.7359592 66.7401203,26.6668651 66.6505049,26.5780284 C66.5608894,26.4891917 66.4732234,26.377654 66.3875044,26.2434119 C66.3017853,26.1091698 66.2180157,25.9433438 66.1361931,25.745929 L65.6511034,24.5673682 C65.6316218,24.5160404 65.6160367,24.4706357 65.604348,24.4311527 C65.5926588,24.3916697 65.5868147,24.3541614 65.5868147,24.3186268 C65.5868147,24.2988853 65.5936332,24.2801311 65.6072701,24.2623638 C65.620907,24.2445965 65.6442849,24.2297906 65.6774034,24.2179457 C65.7105224,24.2061008 65.7572772,24.1972173 65.8176706,24.1912949 C65.8780634,24.1853724 65.9550146,24.1824112 66.0485259,24.1824112 C66.153727,24.1824112 66.2413925,24.1853724 66.3115264,24.1912949 C66.3816603,24.1972173 66.4381561,24.2080749 66.4810156,24.2238681 C66.5238751,24.2396613 66.5560192,24.2594025 66.5774489,24.2830923 C66.5988787,24.306782 66.61349,24.3344197 66.6212823,24.3660061 L67.082994,25.5978686 C67.1492315,25.7676453 67.2183904,25.9137301 67.2904719,26.0361273 C67.3625541,26.1585245 67.4453499,26.2582176 67.5388612,26.3352093 C67.632373,26.4122011 67.736598,26.4674765 67.8515396,26.501037 C67.9664807,26.5345975 68.0999277,26.5513775 68.2518842,26.5513775 L68.6434626,26.5513775 L68.6434626,24.3127043 C68.6434626,24.2929629 68.6532031,24.2742087 68.6726846,24.2564414 C68.6921668,24.2386741 68.7213882,24.2248552 68.7603519,24.2149845 C68.7993149,24.2051137 68.8499661,24.1972173 68.9123072,24.1912949 C68.9746488,24.1853724 69.0467292,24.1824112 69.1285523,24.1824112 C69.2103749,24.1824112 69.2814815,24.1853724 69.3418749,24.1912949 C69.4022677,24.1972173 69.4519451,24.2051137 69.4909082,24.2149845 C69.5298713,24.2248552 69.5590933,24.2386741 69.5785748,24.2564414 C69.5980564,24.2742087 69.6077974,24.2929629 69.6077974,24.3127043 L69.6077974,26.5513775 L69.9993753,26.5513775 C70.1513318,26.5513775 70.2857532,26.5336104 70.4026424,26.4980758 C70.5195323,26.4625411 70.6257055,26.4062787 70.721165,26.3292869 C70.816625,26.2522951 70.9023429,26.1535892 70.9783208,26.0331661 C71.0542994,25.9127431 71.1254059,25.7676453 71.1916434,25.5978686 L71.6825772,24.3660061 C71.6981629,24.3344197 71.7147218,24.306782 71.7322551,24.2830923 C71.7497885,24.2594025 71.7770629,24.2396613 71.8140777,24.2238681 C71.8510926,24.2080749 71.9017438,24.1972173 71.9660336,24.1912949 C72.0303229,24.1853724 72.1150663,24.1824112 72.2202669,24.1824112 C72.3137788,24.1824112 72.3907299,24.1853724 72.4511228,24.1912949 C72.5115156,24.1972173 72.558271,24.2061008 72.5913894,24.2179457 C72.6245084,24.2297906 72.6478858,24.2445965 72.6615233,24.2623638 C72.6751602,24.2801311 72.6819787,24.2988853 72.6819787,24.3186268 C72.6819787,24.3541614 72.676134,24.3916697 72.6644453,24.4311527 C72.6527566,24.4706357 72.6371715,24.5160404 72.61769,24.5673682 L72.1150669,25.745929 C72.0332443,25.9433438 71.9485003,26.1081827 71.8608331,26.2404507 C71.7731658,26.3727186 71.684526,26.4822822 71.5949105,26.5691448 C71.5052951,26.6560073 71.4166552,26.7251015 71.328988,26.7764293 C71.2413208,26.8277571 71.1526809,26.8672395 71.0630655,26.8948776 L71.0630655,26.9067224 C71.1955404,26.954102 71.3172987,27.0113514 71.4283439,27.0784725 C71.5393891,27.1455936 71.6426397,27.2294936 71.7380998,27.3301752 C71.8335599,27.4308567 71.9221997,27.5493038 72.0040223,27.6855201 C72.0858449,27.8217364 72.1657181,27.9786788 72.2436449,28.1563521 L72.8164012,29.5007405 C72.8280899,29.5283786 72.8388048,29.5540422 72.8485453,29.5777319 C72.8582863,29.6014217 72.8651048,29.6241241 72.8690012,29.6458397 C72.8728976,29.6675554 72.8767935,29.6853224 72.8806899,29.6991415 C72.8845863,29.7129605 72.8865345,29.7257922 72.8865345,29.7376372 Z M78.7878571,29.7021027 C78.7878571,29.7297408 78.7800648,29.7554043 78.7644797,29.7790941 C78.748894,29.8027839 78.7235684,29.821538 78.6885018,29.835357 C78.6534345,29.849176 78.6047315,29.8600337 78.5423905,29.8679303 C78.4800494,29.8758269 78.4021239,29.8797752 78.308612,29.8797752 C78.2151007,29.8797752 78.1371751,29.8758269 78.0748341,29.8679303 C78.012493,29.8600337 77.9618419,29.849176 77.9228782,29.835357 C77.8839151,29.821538 77.8566413,29.8027839 77.8410562,29.7790941 C77.8254711,29.7554043 77.8176782,29.7297408 77.8176782,29.7021027 L77.8176782,26.6342913 C77.8176782,26.4803078 77.8215746,26.3233653 77.8293675,26.1634593 C77.8371598,26.0035533 77.8469002,25.8466108 77.8585895,25.6926272 C77.7689741,25.8505591 77.6705937,26.0055274 77.5634449,26.1575368 C77.4562956,26.3095463 77.3481748,26.4605664 77.2390778,26.6106017 L75.0064969,29.7021027 C74.9792231,29.7336891 74.9548713,29.7613267 74.9334416,29.7850165 C74.9120118,29.8087063 74.884738,29.8274604 74.851619,29.8412794 C74.8185005,29.8550985 74.7766154,29.8649691 74.7259637,29.8708915 C74.6753113,29.876814 74.6129708,29.8797752 74.5389411,29.8797752 C74.4532221,29.8797752 74.3830894,29.8758269 74.3285406,29.8679303 C74.2739924,29.8600337 74.230159,29.849176 74.1970406,29.835357 C74.1639216,29.821538 74.1405442,29.8027839 74.1269073,29.7790941 C74.1132698,29.7554043 74.1064513,29.7297408 74.1064513,29.7021027 L74.1064513,24.3600837 C74.1064513,24.3324456 74.1132698,24.306782 74.1269073,24.2830923 C74.1405442,24.2594025 74.1658698,24.2396613 74.2028852,24.2238681 C74.2399001,24.2080749 74.2895775,24.1972173 74.3519185,24.1912949 C74.4142596,24.1853724 74.4902369,24.1824112 74.5798524,24.1824112 C74.7668755,24.1824112 74.8954523,24.1972171 74.9655862,24.2268293 C75.0357195,24.2564416 75.0707862,24.3008592 75.0707862,24.3600837 L75.0707862,27.4456623 C75.0707862,27.5996459 75.0668897,27.7526401 75.0590969,27.9046495 C75.0513046,28.0566589 75.0415642,28.207679 75.0298749,28.3577143 C75.1194903,28.207679 75.2100784,28.0606072 75.3016421,27.9164943 C75.3932057,27.7723815 75.4915861,27.631232 75.5967866,27.4930416 L77.8585895,24.3600837 C77.8819675,24.3284973 77.9063193,24.3008597 77.9316448,24.2771698 C77.956971,24.2534801 77.9881413,24.2347259 78.0251561,24.2209069 C78.0621716,24.2070879 78.1060043,24.1972173 78.1566567,24.1912949 C78.2073084,24.1853724 78.2735453,24.1824112 78.3553679,24.1824112 C78.4371905,24.1824112 78.5063494,24.1853724 78.5628458,24.1912949 C78.6193423,24.1972173 78.6641494,24.2080749 78.6972684,24.2238681 C78.7303869,24.2396613 78.7537648,24.2594025 78.7674017,24.2830923 C78.7810386,24.306782 78.7878571,24.3344197 78.7878571,24.3660061 L78.7878571,29.7021027 Z" id=""></path>
            </g>
            <path d="M21.6981783,0 C33.6820132,0 43.3967826,9.84980514 43.3967826,22.0002159 C43.3967826,34.1501949 33.6820132,44 21.6981783,44 C9.71476937,44 0,34.1501949 0,22.0002159 C0,9.84980514 9.71476937,0 21.6981783,0 Z M33.6810779,16.176666 C33.638798,16.176666 33.5818496,16.1796573 33.5110954,16.1856398 L33.5110954,16.1856398 L28.553992,16.2471742 C27.7368681,16.2604212 27.1341637,16.5445905 26.8571871,16.9689215 L26.8571871,16.9689215 L22.4523111,22.1326836 C22.3517885,22.2275491 22.2370287,22.2997666 22.1157975,22.3497633 C21.9859378,22.4027512 21.8439981,22.4300999 21.698607,22.4318092 C21.5527845,22.4300999 21.4108448,22.4027512 21.2809851,22.3497633 C21.1597539,22.2997666 21.0449942,22.2275491 20.9444715,22.1326836 L20.9444715,22.1326836 L16.539164,16.9689215 C16.2626189,16.5445905 15.6599145,16.2604212 14.8427906,16.2471742 L14.8427906,16.2471742 L9.88568722,16.1856398 C9.81450164,16.1796573 9.75798461,16.176666 9.71570472,16.176666 C9.11904033,16.176666 8.58277578,16.4317775 8.18413664,16.8334604 C7.80404891,17.2167684 7.54950663,17.7406655 7.49557817,18.3000303 C7.48694959,18.3910499 7.48220391,18.4662587 7.48220391,18.5243745 L7.48220391,18.5243745 L7.48220391,25.7461205 C7.48220391,25.7837249 7.4839296,25.8320123 7.48781246,25.8888461 L7.48781246,25.8888461 L7.48781246,25.893974 L7.48910674,25.9110669 C7.53009235,26.4892339 7.78765467,27.0289419 8.17982238,27.4237876 C8.58536435,27.8323077 9.13586599,28.091265 9.74547322,28.091265 C9.78516455,28.091265 9.83564161,28.0887011 9.89561004,28.0848551 L9.89561004,28.0848551 L9.89561004,28.0844278 L15.955011,28.0211842 L15.8920226,34.0019863 C15.8894341,34.0250617 15.8885712,34.0489918 15.8885712,34.0724945 L15.8885712,34.0724945 L15.8885712,34.0895874 C15.8885712,34.7262976 16.1551934,35.3053192 16.5818754,35.7262316 C16.9869859,36.1262052 17.5413704,36.3825986 18.1501148,36.4086652 C18.1777262,36.4120838 18.205769,36.4137931 18.2346746,36.4137931 L18.2346746,36.4137931 L25.162108,36.4137931 C25.1910136,36.4137931 25.2190565,36.4120838 25.2466678,36.4086652 C25.8554122,36.3825986 26.4093653,36.1262052 26.8149072,35.7262316 C27.2415892,35.3053192 27.5082114,34.7262976 27.5082114,34.0895874 L27.5082114,34.0895874 L27.5082114,34.0724945 C27.5082114,34.0489918 27.5073485,34.0250617 27.50476,34.0019863 L27.50476,34.0019863 L27.4417716,28.0211842 L33.5011726,28.0844278 C33.5607096,28.0887011 33.6111866,28.091265 33.6513094,28.091265 C34.2609166,28.091265 34.8109868,27.8323077 35.2169602,27.4237876 C35.6091279,27.0289419 35.8666903,26.4892339 35.9076759,25.9110669 L35.9076759,25.9110669 L35.9089701,25.893974 L35.9089701,25.8888461 C35.9124216,25.8392768 35.9141473,25.7956899 35.9141473,25.7606494 L35.9141473,25.7606494 L35.9145787,25.7461205 L35.9145787,18.5243745 C35.9145787,18.4662587 35.909833,18.3910499 35.9012044,18.3000303 C35.847276,17.7406655 35.5927337,17.2167684 35.212646,16.8334604 C34.8140068,16.4317775 34.2777423,16.176666 33.6810779,16.176666 Z M25.305342,7.58620691 L18.0914406,7.58620691 C17.9891923,7.58620691 17.785127,7.59304407 17.6820158,7.60586371 C16.5313983,7.74730738 15.597789,8.58400434 15.597789,9.77580609 C15.597789,9.8582793 15.6033975,10.0428825 15.6141832,10.1300562 L15.6141832,10.1300562 L15.7388658,12.9046596 C15.80056,13.3576212 15.9006512,13.5268408 16.2319876,13.8862188 L16.2319876,13.8862188 L21.1433597,19.5785785 C21.1662253,19.6072091 21.1916796,19.6345577 21.2197223,19.660197 C21.3556221,19.7841205 21.5273303,19.8448003 21.698607,19.8448003 C21.8694524,19.8448003 22.0411605,19.7841205 22.1770603,19.660197 C22.205103,19.6345577 22.2305573,19.6072091 22.2534229,19.5785785 L22.2534229,19.5785785 L27.164795,13.8862188 C27.4961314,13.5268408 27.5962227,13.3576212 27.6579168,12.9046596 L27.6579168,12.9046596 L27.782168,10.1300562 C27.7933851,10.0428825 27.7989936,9.8582793 27.7989936,9.77580609 C27.7989936,8.58400434 26.8653843,7.74730738 25.7143354,7.60586371 C25.6116556,7.59304407 25.4075903,7.58620691 25.305342,7.58620691 L25.305342,7.58620691 Z" id="Combined-Shape"></path>
        </g>
    </g>
</svg>